<svg xmlns="http://www.w3.org/2000/svg" viewBox="0 0 448 512"><path d="M224.1 141c-63.6 0-114.9 51.3-114.9 114.9s51.3 114.9 114.9 114.9S339 319.5 339 255.9 287.7 141 224.1 141zm146.4-41a54.5 54.5 0 0 0-30.8-30.8C318.7 58 224 58 224 58s-94.7 0-115.7 10.2a54.5 54.5 0 0 0-30.8 30.8C67.3 79 67.3 173.7 67.3 173.7s0 94.7 10.2 115.7a54.5 54.5 0 0 0 30.8 30.8C129.3 330.3 224 330.3 224 330.3s94.7 0 115.7-10.2a54.5 54.5 0 0 0 30.8-30.8c10.2-21 10.2-115.7 10.2-115.7s0-94.7-10.2-115.7zM224.1 338c-45.5 0-82.1-36.6-82.1-82.1s36.6-82.1 82.1-82.1 82.1 36.6 82.1 82.1-36.6 82.1-82.1 82.1z"/></svg>